{
    "asset" : {
        "generator" : "Khronos glTF Blender I/O v1.7.33",
        "version" : "2.0"
    },
    "scene" : 0,
    "scenes" : [
        {
            "name" : "Scene",
            "nodes" : [
                0
            ]
        }
    ],
    "nodes" : [
        {
            "mesh" : 0,
            "name" : "Cylinder",
            "scale" : [
                19.39435386657715,
                1,
                19.39435386657715
            ]
        }
    ],
    "materials" : [
        {
            "doubleSided" : true,
            "name" : "Material.001",
            "pbrMetallicRoughness" : {
                "baseColorFactor" : [
                    0,
                    0.004093714524060488,
                    0.8000000715255737,
                    1
                ],
                "metallicFactor" : 0,
                "roughnessFactor" : 0.5
            }
        },
        {
            "doubleSided" : true,
            "name" : "Material.002",
            "pbrMetallicRoughness" : {
                "baseColorFactor" : [
                    0.8000000715255737,
                    0.10950704663991928,
                    0.4888233542442322,
                    1
                ],
                "metallicFactor" : 0,
                "roughnessFactor" : 0.5
            }
        }
    ],
    "meshes" : [
        {
            "name" : "Cylinder.001",
            "primitives" : [
                {
                    "attributes" : {
                        "POSITION" : 0,
                        "NORMAL" : 1,
                        "TEXCOORD_0" : 2
                    },
                    "indices" : 3,
                    "material" : 0
                },
                {
                    "attributes" : {
                        "POSITION" : 4,
                        "NORMAL" : 5,
                        "TEXCOORD_0" : 6
                    },
                    "indices" : 7,
                    "material" : 1
                }
            ]
        }
    ],
    "accessors" : [
        {
            "bufferView" : 0,
            "componentType" : 5126,
            "count" : 13685,
            "max" : [
                1.6052258014678955,
                20.371559143066406,
                1.1402039527893066
            ],
            "min" : [
                -1.1402040719985962,
                -0.04821968078613281,
                -1.1402039527893066
            ],
            "type" : "VEC3"
        },
        {
            "bufferView" : 1,
            "componentType" : 5126,
            "count" : 13685,
            "type" : "VEC3"
        },
        {
            "bufferView" : 2,
            "componentType" : 5126,
            "count" : 13685,
            "type" : "VEC2"
        },
        {
            "bufferView" : 3,
            "componentType" : 5123,
            "count" : 69696,
            "type" : "SCALAR"
        },
        {
            "bufferView" : 4,
            "componentType" : 5126,
            "count" : 559,
            "max" : [
                0.5495055913925171,
                27.715221405029297,
                0.5495054721832275
            ],
            "min" : [
                -0.5495052337646484,
                6.400604248046875,
                -0.5495050549507141
            ],
            "type" : "VEC3"
        },
        {
            "bufferView" : 5,
            "componentType" : 5126,
            "count" : 559,
            "type" : "VEC3"
        },
        {
            "bufferView" : 6,
            "componentType" : 5126,
            "count" : 559,
            "type" : "VEC2"
        },
        {
            "bufferView" : 7,
            "componentType" : 5123,
            "count" : 2880,
            "type" : "SCALAR"
        }
    ],
    "bufferViews" : [
        {
            "buffer" : 0,
            "byteLength" : 164220,
            "byteOffset" : 0
        },
        {
            "buffer" : 0,
            "byteLength" : 164220,
            "byteOffset" : 164220
        },
        {
            "buffer" : 0,
            "byteLength" : 109480,
            "byteOffset" : 328440
        },
        {
            "buffer" : 0,
            "byteLength" : 139392,
            "byteOffset" : 437920
        },
        {
            "buffer" : 0,
            "byteLength" : 6708,
            "byteOffset" : 577312
        },
        {
            "buffer" : 0,
            "byteLength" : 6708,
            "byteOffset" : 584020
        },
        {
            "buffer" : 0,
            "byteLength" : 4472,
            "byteOffset" : 590728
        },
        {
            "buffer" : 0,
            "byteLength" : 5760,
            "byteOffset" : 595200
        }
    ],
    "buffers" : [
        {
            "byteLength" : 600960,
            "uri" : "data:application/octet-stream;base64,"
        }
    ]
}
