{
    "asset" : {
        "generator" : "Khronos glTF Blender I/O v1.7.33",
        "version" : "2.0"
    },
    "scene" : 0,
    "scenes" : [
        {
            "name" : "Scene",
            "nodes" : [
                0
            ]
        }
    ],
    "nodes" : [
        {
            "mesh" : 0,
            "name" : "turret_0",
            "rotation" : [
                0,
                0.7071068286895752,
                0,
                0.7071067094802856
            ],
            "scale" : [
                61.93680191040039,
                61.93679428100586,
                61.93680191040039
            ]
        }
    ],
    "materials" : [
        {
            "doubleSided" : true,
            "emissiveFactor" : [
                1,
                1,
                1
            ],
            "emissiveTexture" : {
                "index" : 0
            },
            "name" : "initialShadingGroup",
            "normalTexture" : {
                "index" : 1
            },
            "occlusionTexture" : {
                "index" : 2
            },
            "pbrMetallicRoughness" : {
                "baseColorTexture" : {
                    "index" : 3
                },
                "metallicRoughnessTexture" : {
                    "index" : 2
                }
            }
        }
    ],
    "meshes" : [
        {
            "name" : "Mesh",
            "primitives" : [
                {
                    "attributes" : {
                        "POSITION" : 0,
                        "NORMAL" : 1,
                        "TEXCOORD_0" : 2
                    },
                    "indices" : 3,
                    "material" : 0
                }
            ]
        }
    ],
    "textures" : [
        {
            "sampler" : 0,
            "source" : 0
        },
        {
            "sampler" : 0,
            "source" : 1
        },
        {
            "sampler" : 0,
            "source" : 2
        },
        {
            "sampler" : 0,
            "source" : 3
        }
    ],
    "images" : [
        {
            "bufferView" : 4,
            "mimeType" : "image/png",
            "name" : "initialShadingGroup_emissive"
        },
        {
            "bufferView" : 5,
            "mimeType" : "image/png",
            "name" : "initialShadingGroup_normal"
        },
        {
            "bufferView" : 6,
            "mimeType" : "image/png",
            "name" : "initialShadingGroup_metallicRoughness"
        },
        {
            "bufferView" : 7,
            "mimeType" : "image/png",
            "name" : "initialShadingGroup_baseColor"
        }
    ],
    "accessors" : [
        {
            "bufferView" : 0,
            "componentType" : 5126,
            "count" : 1263,
            "max" : [
                0.15412618219852448,
                0.45263561606407166,
                0.16611257195472717
            ],
            "min" : [
                -0.30494484305381775,
                1.6636887778531673e-07,
                -0.16611267626285553
            ],
            "type" : "VEC3"
        },
        {
            "bufferView" : 1,
            "componentType" : 5126,
            "count" : 1263,
            "type" : "VEC3"
        },
        {
            "bufferView" : 2,
            "componentType" : 5126,
            "count" : 1263,
            "type" : "VEC2"
        },
        {
            "bufferView" : 3,
            "componentType" : 5123,
            "count" : 2346,
            "type" : "SCALAR"
        }
    ],
    "bufferViews" : [
        {
            "buffer" : 0,
            "byteLength" : 15156,
            "byteOffset" : 0
        },
        {
            "buffer" : 0,
            "byteLength" : 15156,
            "byteOffset" : 15156
        },
        {
            "buffer" : 0,
            "byteLength" : 10104,
            "byteOffset" : 30312
        },
        {
            "buffer" : 0,
            "byteLength" : 4692,
            "byteOffset" : 40416
        },
        {
            "buffer" : 0,
            "byteLength" : 8761,
            "byteOffset" : 45108
        },
        {
            "buffer" : 0,
            "byteLength" : 97480,
            "byteOffset" : 53872
        },
        {
            "buffer" : 0,
            "byteLength" : 612161,
            "byteOffset" : 151352
        },
        {
            "buffer" : 0,
            "byteLength" : 862089,
            "byteOffset" : 763516
        }
    ],
    "samplers" : [
        {
            "magFilter" : 9729,
            "minFilter" : 9987
        }
    ],
    "buffers" : [
        {
            "byteLength" : 1625608,
            "uri" : "data:application/octet-stream;base64,"
        }
    ]
}
